<svg width="139" height="27" viewBox="0 0 139 27" fill="none" xmlns="http://www.w3.org/2000/svg">
<path d="M14.1037 17.064C14.3305 16.4459 14.4441 15.7447 14.4441 14.9605C14.4441 14.163 14.3305 13.4618 14.1037 12.857C13.8835 12.2455 13.5435 11.7703 13.0831 11.4314C12.6231 11.0858 12.0393 10.913 11.3322 10.913C10.5985 10.913 9.99156 11.0924 9.51158 11.4513C9.03771 11.8102 8.68435 12.2954 8.45107 12.9068C8.22391 13.5183 8.11073 14.2028 8.11073 14.9605C8.11073 15.7248 8.22757 16.416 8.46084 17.0341C8.69452 17.6455 9.04463 18.1307 9.51158 18.4896C9.98504 18.8485 10.5753 19.0279 11.2825 19.0279C12.0092 19.0279 12.6064 18.8551 13.0733 18.5095C13.5403 18.1573 13.8835 17.6754 14.1037 17.064Z" fill="currentColor"/>
<path fill-rule="evenodd" clip-rule="evenodd" d="M0 4.15385C0 1.85975 1.86657 0 4.16875 0H27.0968C29.399 0 31.2656 1.85975 31.2656 4.15385V22.8462C31.2656 25.1403 29.399 27 27.0968 27H4.16875C1.86657 27 0 25.1403 0 22.8462V4.15385ZM11.0622 20.6529C10.0551 20.6529 9.19119 20.4037 8.47102 19.9052C7.75045 19.4001 7.19353 18.7189 6.79986 17.8615C6.41311 17.0042 6.21974 16.0372 6.21974 14.9605C6.21974 13.8838 6.41311 12.9168 6.79986 12.0594C7.19353 11.2021 7.75045 10.5275 8.47102 10.0357C9.19119 9.53724 10.0518 9.28799 11.0521 9.28799C12.0727 9.28799 12.9296 9.53392 13.6233 10.0257C13.8481 10.185 14.0549 10.3634 14.2438 10.5609V5.99816H16.0346V20.3538H14.4441V19.1319C14.2035 19.4241 13.9303 19.6819 13.6233 19.9052C12.9296 20.4037 12.0759 20.6529 11.0622 20.6529ZM18.4377 9.58708H20.0283V11.2941C20.0584 11.2409 20.0894 11.1885 20.1215 11.1369C20.1651 11.0674 20.2107 10.9994 20.2583 10.9329C20.4651 10.6538 20.6955 10.4245 20.9488 10.245C21.2289 10.0191 21.546 9.84627 21.8994 9.72665C22.2527 9.60701 22.613 9.53724 22.9798 9.51729C23.3466 9.49072 23.6902 9.51397 24.0102 9.58708V11.2519C23.6369 11.1523 23.2265 11.1257 22.7799 11.1722C22.3329 11.2187 21.9193 11.3815 21.5391 11.6607C21.1922 11.9066 20.9223 12.2056 20.7289 12.5579C20.5421 12.9102 20.4118 13.2923 20.3385 13.7044C20.2652 14.1098 20.2286 14.5252 20.2286 14.9505V20.3538H18.4377V9.58708Z" fill="currentColor"/>
<path fill-rule="evenodd" clip-rule="evenodd" d="M39.1296 25.179C39.6699 25.3517 40.2235 25.4382 40.7902 25.4382C41.6508 25.4382 42.4076 25.3152 43.0614 25.0693C43.7152 24.83 44.2486 24.4612 44.6622 23.9627C45.0758 23.4709 45.3526 22.8428 45.4927 22.0785C45.546 21.8127 45.5794 21.5435 45.5928 21.271C45.6128 20.9985 45.6229 20.7161 45.6229 20.4236V9.58708H44.0422V10.7857C43.802 10.4966 43.5284 10.2433 43.2214 10.0257C42.5277 9.53392 41.6708 9.28799 40.6502 9.28799C39.6499 9.28799 38.7893 9.53724 38.0691 10.0357C37.3485 10.5275 36.7916 11.2021 36.398 12.0594C36.0112 12.9168 35.8178 13.8838 35.8178 14.9605C35.8178 16.0372 36.0112 17.0042 36.398 17.8615C36.7916 18.7189 37.3485 19.4001 38.0691 19.9052C38.7893 20.4037 39.6532 20.6529 40.6603 20.6529C41.674 20.6529 42.5277 20.4037 43.2214 19.9052C43.4421 19.7446 43.6456 19.5661 43.8317 19.3698V20.4037C43.8386 21.1348 43.7319 21.7462 43.5117 22.238C43.2984 22.7298 42.965 23.0987 42.511 23.3446C42.0575 23.5972 41.4872 23.7234 40.8004 23.7234C40.2801 23.7234 39.7733 23.6038 39.2794 23.3645C38.7925 23.1253 38.416 22.7431 38.1489 22.2181L36.5181 23.0754C36.8185 23.6071 37.1918 24.0458 37.6388 24.3914C38.0923 24.7436 38.5894 25.0062 39.1296 25.179ZM44.0422 14.9605C44.0422 15.7447 43.9286 16.4459 43.7018 17.064C43.4816 17.6754 43.1384 18.1573 42.6714 18.5095C42.2045 18.8552 41.6073 19.0279 40.8806 19.0279C40.1734 19.0279 39.5831 18.8485 39.1097 18.4896C38.6427 18.1307 38.2926 17.6455 38.0589 17.0341C37.8257 16.416 37.7088 15.7248 37.7088 14.9605C37.7088 14.2028 37.822 13.5183 38.0492 12.9068C38.2824 12.2954 38.6358 11.8102 39.1097 11.4513C39.5897 11.0924 40.1966 10.913 40.9302 10.913C41.6374 10.913 42.2212 11.0858 42.6812 11.4314C43.1416 11.7703 43.4816 12.2455 43.7018 12.857C43.9286 13.4618 44.0422 14.163 44.0422 14.9605Z" fill="currentColor"/>
<path fill-rule="evenodd" clip-rule="evenodd" d="M49.8369 19.9252C50.6173 20.4103 51.5447 20.6529 52.6186 20.6529C53.6921 20.6529 54.6195 20.4137 55.3999 19.9351C56.1804 19.45 56.7804 18.782 57.2006 17.9313C57.6211 17.074 57.8312 16.0837 57.8312 14.9605C57.8312 13.8506 57.6211 12.8703 57.2006 12.0196C56.7874 11.1622 56.1901 10.4943 55.4097 10.0158C54.6293 9.53057 53.6991 9.28799 52.6186 9.28799C51.5646 9.28799 50.6474 9.52725 49.867 10.0058C49.0866 10.4777 48.4828 11.1389 48.0562 11.9897C47.6291 12.8404 47.4158 13.8307 47.4158 14.9605C47.4158 16.0704 47.6259 17.054 48.046 17.9114C48.4666 18.7687 49.0634 19.44 49.8369 19.9252ZM55.1199 17.8516C54.5727 18.5959 53.739 18.9681 52.6186 18.9681C51.5312 18.9681 50.7077 18.6026 50.1471 17.8715C49.5869 17.1404 49.3068 16.1701 49.3068 14.9605C49.3068 14.1762 49.4269 13.485 49.6671 12.8869C49.9069 12.2887 50.2704 11.8202 50.7573 11.4812C51.2442 11.1423 51.8647 10.9728 52.6186 10.9728C53.7255 10.9728 54.556 11.335 55.1097 12.0594C55.6633 12.7772 55.9402 13.7443 55.9402 14.9605C55.9402 16.1435 55.6666 17.1072 55.1199 17.8516Z" fill="currentColor"/>
<path d="M61.3946 19.9252C62.1615 20.4103 63.0922 20.6529 64.1861 20.6529C65.3064 20.6529 66.2635 20.3871 67.0574 19.8554C67.8512 19.3237 68.4346 18.5561 68.8083 17.5525L67.0073 17.0839C66.7671 17.6954 66.4137 18.1639 65.9468 18.4896C65.4798 18.8086 64.8928 18.9681 64.1861 18.9681C63.1121 18.9681 62.3016 18.6026 61.7548 17.8715C61.2146 17.1338 60.9378 16.1668 60.9244 14.9705C60.9309 14.1929 61.051 13.505 61.2846 12.9068C61.5179 12.302 61.8749 11.8301 62.3549 11.4912C62.8353 11.1456 63.4455 10.9728 64.1861 10.9728C64.8464 10.9728 65.4298 11.1456 65.9366 11.4912C66.4504 11.8368 66.8204 12.322 67.0472 12.9467L68.8083 12.4183C68.5282 11.448 67.9746 10.6837 67.1473 10.1254C66.327 9.56713 65.3463 9.28799 64.206 9.28799C63.1256 9.28799 62.2014 9.52725 61.4345 10.0058C60.6675 10.4843 60.0772 11.1523 59.6636 12.0096C59.2569 12.8603 59.0468 13.8473 59.0334 14.9705C59.0468 16.0671 59.2536 17.0441 59.6538 17.9014C60.054 18.7588 60.6341 19.4334 61.3946 19.9252Z" fill="currentColor"/>
<path d="M78.1436 14.9605V20.3538H79.9447V14.4022C79.9447 13.9902 79.9048 13.5548 79.8246 13.0963C79.7513 12.631 79.6214 12.1758 79.4346 11.7305C79.2477 11.2785 78.9908 10.8731 78.6639 10.5142C78.3374 10.1487 77.9271 9.85626 77.4336 9.63693C76.9398 9.4176 76.343 9.30795 75.6424 9.30795C74.7154 9.30795 73.9085 9.51064 73.2213 9.91607C72.7585 10.1874 72.3648 10.5404 72.0407 10.9749V5.99816H70.44V20.3538H72.241V14.6814C72.241 14.0566 72.3111 13.515 72.4511 13.0564C72.5977 12.5911 72.8012 12.2056 73.0613 11.8999C73.3215 11.5942 73.6317 11.3682 73.9916 11.222C74.3588 11.0692 74.7655 10.9927 75.2125 10.9927C75.7861 10.9927 76.2596 11.1024 76.6329 11.3217C77.0131 11.541 77.3136 11.8401 77.5334 12.219C77.7601 12.5911 77.9169 13.0132 78.0036 13.485C78.0972 13.9569 78.1436 14.4487 78.1436 14.9605Z" fill="currentColor"/>
<path fill-rule="evenodd" clip-rule="evenodd" d="M83.186 20.2143C83.7332 20.5067 84.4102 20.6529 85.2171 20.6529C86.2645 20.6529 87.1516 20.4303 87.8787 19.985C88.412 19.6614 88.8586 19.2254 89.2193 18.6772V20.3538H90.8001V13.6944C90.8001 13.269 90.7802 12.8636 90.7398 12.4781C90.7 12.086 90.6031 11.7238 90.45 11.3915C90.143 10.687 89.6362 10.162 88.929 9.81638C88.2288 9.46412 87.3882 9.28799 86.4079 9.28799C85.1874 9.28799 84.2034 9.55717 83.4563 10.0955C82.7093 10.6338 82.2057 11.3749 81.9456 12.3186L83.6363 12.8271C83.8366 12.1625 84.1802 11.6839 84.6671 11.3915C85.1605 11.0924 85.7341 10.9429 86.3879 10.9429C87.3751 10.9429 88.0684 11.1722 88.469 11.6308C88.835 12.0435 89.0284 12.658 89.0487 13.4744C88.6693 13.5264 88.2728 13.5798 87.8584 13.6346C87.205 13.721 86.5581 13.8173 85.9177 13.9237C85.2838 14.0234 84.7102 14.143 84.1969 14.2826C83.6497 14.4421 83.1795 14.6614 82.7858 14.9406C82.3926 15.2131 82.0856 15.5586 81.8654 15.9773C81.6521 16.3894 81.5454 16.8779 81.5454 17.4428C81.5454 18.021 81.6822 18.5527 81.9558 19.0379C82.2358 19.5231 82.6458 19.9152 83.186 20.2143ZM87.148 18.8286C86.6814 19.0545 86.1278 19.1675 85.4874 19.1675C84.9736 19.1675 84.5567 19.0844 84.2368 18.9183C83.9233 18.7521 83.6896 18.5361 83.5365 18.2703C83.3896 18.0044 83.3163 17.7253 83.3163 17.4329C83.3163 17.0939 83.3928 16.8114 83.5463 16.5855C83.7063 16.3529 83.9131 16.1634 84.1667 16.0172C84.4269 15.871 84.7037 15.7514 84.9972 15.6583C85.3974 15.5454 85.8477 15.449 86.3476 15.3692C86.7376 15.3019 87.1455 15.2386 87.5718 15.1793L87.9386 15.13C88.2964 15.0832 88.6587 15.0352 89.0251 14.9857C89.0219 15.1541 89.0166 15.3518 89.0092 15.5786C89.0023 15.984 88.949 16.3529 88.8488 16.6852C88.7621 17.1305 88.5757 17.5425 88.2887 17.9213C88.0021 18.2935 87.6218 18.5959 87.148 18.8286Z" fill="currentColor"/>
<path fill-rule="evenodd" clip-rule="evenodd" d="M94.9021 19.9551C95.6959 20.4203 96.6229 20.6529 97.6834 20.6529C98.7305 20.6529 99.6746 20.3937 100.515 19.8753C101.362 19.3503 101.995 18.6125 102.416 17.6622L100.705 17.074C100.405 17.6854 99.9913 18.154 99.4645 18.4796C98.9373 18.8053 98.3169 18.9681 97.6032 18.9681C96.5427 18.9681 95.7256 18.6192 95.152 17.9213C94.6558 17.3177 94.3741 16.5002 94.3073 15.4689H102.596C102.649 14.1928 102.482 13.0929 102.096 12.1691C101.715 11.2453 101.142 10.5341 100.375 10.0357C99.6143 9.53724 98.6906 9.28799 97.6032 9.28799C96.5561 9.28799 95.6426 9.52393 94.8622 9.99583C94.0883 10.4611 93.4845 11.1257 93.051 11.9897C92.6174 12.847 92.4008 13.8639 92.4008 15.0402C92.4008 16.1634 92.6211 17.1471 93.0611 17.9911C93.5012 18.8286 94.1151 19.4832 94.9021 19.9551ZM100.749 14.0433C100.651 13.1092 100.396 12.3848 99.9844 11.87C99.4645 11.2121 98.6906 10.8831 97.6635 10.8831C96.5627 10.8831 95.7256 11.2353 95.152 11.9398C94.7213 12.4687 94.4526 13.1699 94.3452 14.0433H100.749Z" fill="currentColor"/>
<path d="M104.833 9.58708H103.032L106.954 20.3538H108.775L112.697 9.58708H110.886L107.864 18.0908L104.833 9.58708Z" fill="currentColor"/>
<path d="M114.306 5.84862V7.68294H116.087V5.84862H114.306Z" fill="currentColor"/>
<path d="M116.087 9.58708H114.306V20.3538H116.087V9.58708Z" fill="currentColor"/>
<path d="M120.45 19.9252C121.217 20.4103 122.147 20.6529 123.241 20.6529C124.362 20.6529 125.319 20.3871 126.113 19.8554C126.906 19.3237 127.49 18.5561 127.864 17.5525L126.063 17.0839C125.822 17.6954 125.469 18.1639 125.002 18.4896C124.535 18.8086 123.948 18.9681 123.241 18.9681C122.167 18.9681 121.357 18.6026 120.81 17.8715C120.27 17.1338 119.993 16.1668 119.98 14.9705C119.986 14.1929 120.106 13.505 120.34 12.9068C120.573 12.302 120.93 11.8301 121.41 11.4912C121.891 11.1456 122.501 10.9728 123.241 10.9728C123.901 10.9728 124.485 11.1456 124.992 11.4912C125.506 11.8368 125.876 12.322 126.103 12.9467L127.864 12.4183C127.583 11.448 127.03 10.6837 126.203 10.1254C125.382 9.56713 124.402 9.28799 123.261 9.28799C122.18 9.28799 121.257 9.52725 120.49 10.0058C119.723 10.4843 119.133 11.1523 118.719 12.0096C118.312 12.8603 118.102 13.8473 118.089 14.9705C118.102 16.0671 118.309 17.0441 118.709 17.9014C119.109 18.7588 119.689 19.4334 120.45 19.9252Z" fill="currentColor"/>
<path d="M137.199 14.9605V20.3538H139V14.4022C139 13.9902 138.96 13.5548 138.88 13.0963C138.807 12.631 138.676 12.1758 138.49 11.7305C138.303 11.2785 138.046 10.8731 137.719 10.5142C137.392 10.1487 136.982 9.85626 136.489 9.63693C135.995 9.4176 135.398 9.30795 134.698 9.30795C133.771 9.30795 132.963 9.51064 132.277 9.91607C131.814 10.1874 131.42 10.5404 131.096 10.9749V5.99816H129.495V20.3538H131.296V14.6814C131.296 14.0566 131.366 13.515 131.506 13.0564C131.653 12.5911 131.857 12.2056 132.117 11.8999C132.377 11.5942 132.687 11.3682 133.047 11.222C133.414 11.0692 133.821 10.9927 134.267 10.9927C134.841 10.9927 135.315 11.1024 135.688 11.3217C136.068 11.541 136.368 11.8401 136.589 12.219C136.815 12.5911 136.972 13.0132 137.059 13.485C137.153 13.9569 137.199 14.4487 137.199 14.9605Z" fill="currentColor"/>
</svg>
