<svg width="15" height="18" viewBox="0 0 15 18" fill="none" xmlns="http://www.w3.org/2000/svg">
<path d="M0.68 11.34V9.744H8.9C9.036 9.744 9.2 9.736 9.392 9.72C9.584 9.704 9.78 9.676 9.98 9.636C10.844 9.444 11.488 9.02 11.912 8.364C12.344 7.7 12.56 6.948 12.56 6.108C12.56 5.564 12.468 5.04 12.284 4.536C12.1 4.032 11.816 3.6 11.432 3.24C11.048 2.88 10.564 2.636 9.98 2.508C9.788 2.46 9.592 2.432 9.392 2.424C9.192 2.416 9.028 2.412 8.9 2.412H3.884V0.719999H8.948C9.084 0.719999 9.256 0.727999 9.464 0.743999C9.68 0.751999 9.916 0.776 10.172 0.816C11.068 0.96 11.828 1.276 12.452 1.764C13.084 2.244 13.56 2.856 13.88 3.6C14.208 4.344 14.372 5.168 14.372 6.072C14.372 7.416 14.012 8.556 13.292 9.492C12.58 10.428 11.54 11.012 10.172 11.244C9.916 11.276 9.68 11.3 9.464 11.316C9.256 11.332 9.084 11.34 8.948 11.34H0.68ZM0.68 15.072V13.56H9.956V15.072H0.68ZM2.516 18V0.719999H4.28V18H2.516Z" fill='currentColor'/>
</svg>