<svg width="18" height="19" viewBox="0 0 18 19" fill="none" xmlns="http://www.w3.org/2000/svg">
<path d="M8.32 10.18V14H9.79V10.18H13.6V8.71H9.79V4.9H8.32V8.71H4.5V10.18H8.32Z" fill="black"/>
<path fill-rule="evenodd" clip-rule="evenodd" d="M18 9.5C18 14.4706 13.9706 18.5 9 18.5C4.02944 18.5 0 14.4706 0 9.5C0 4.52944 4.02944 0.5 9 0.5C13.9706 0.5 18 4.52944 18 9.5ZM16.7 9.5C16.7 13.7526 13.2526 17.2 9 17.2C4.74741 17.2 1.3 13.7526 1.3 9.5C1.3 5.24741 4.74741 1.8 9 1.8C13.2526 1.8 16.7 5.24741 16.7 9.5Z" fill="black"/>
</svg>
